<svg width="36" height="37" viewBox="0 0 36 37" fill="none" xmlns="http://www.w3.org/2000/svg">
<rect y="0.015625" width="36" height="36" rx="4" fill="white" fill-opacity="0.08"/>
<g clip-path="url(#clip0_16_396)">
<path d="M16.892 13.3902C16.064 13.3902 15.296 13.5972 14.588 14.0112C13.88 14.4252 13.316 14.9862 12.896 15.6942C12.476 16.4022 12.266 17.1732 12.266 18.0072C12.266 18.8412 12.473 19.6122 12.887 20.3202C13.301 21.0282 13.865 21.5892 14.579 22.0032C15.293 22.4172 16.067 22.6242 16.901 22.6242C17.735 22.6242 18.506 22.4172 19.214 22.0032C19.922 21.5892 20.483 21.0282 20.897 20.3202C21.311 19.6122 21.518 18.8412 21.518 18.0072C21.518 17.1732 21.311 16.4022 20.897 15.6942C20.483 14.9862 19.922 14.4252 19.214 14.0112C18.506 13.5972 17.732 13.3902 16.892 13.3902ZM16.892 20.8602C16.376 20.8602 15.899 20.7312 15.461 20.4732C15.023 20.2152 14.675 19.8672 14.417 19.4292C14.159 18.9912 14.03 18.5142 14.03 17.9982C14.03 17.4822 14.159 17.0082 14.417 16.5762C14.675 16.1442 15.023 15.7992 15.461 15.5412C15.899 15.2832 16.376 15.1542 16.892 15.1542C17.408 15.1542 17.885 15.2832 18.323 15.5412C18.761 15.7992 19.109 16.1442 19.367 16.5762C19.625 17.0082 19.754 17.4822 19.754 17.9982C19.754 18.5142 19.625 18.9912 19.367 19.4292C19.109 19.8672 18.761 20.2152 18.323 20.4732C17.885 20.7312 17.408 20.8602 16.892 20.8602ZM20.672 9.1062H13.112C12.188 9.1062 11.33 9.3402 10.538 9.8082C9.758 10.2642 9.14 10.8852 8.684 11.6712C8.228 12.4572 8 13.3122 8 14.2362V21.7782C8 22.7022 8.228 23.5572 8.684 24.3432C9.14 25.1292 9.758 25.7502 10.538 26.2062C11.33 26.6742 12.188 26.9082 13.112 26.9082H20.672C21.596 26.9082 22.46 26.6742 23.264 26.2062C24.032 25.7502 24.644 25.1382 25.1 24.3702C25.568 23.5662 25.802 22.7022 25.802 21.7782V14.2362C25.802 13.3122 25.568 12.4482 25.1 11.6442C24.644 10.8762 24.032 10.2642 23.264 9.8082C22.46 9.3402 21.596 9.1062 20.672 9.1062ZM24.038 21.7782C24.038 22.3902 23.888 22.9542 23.588 23.4702C23.288 23.9862 22.88 24.3942 22.364 24.6942C21.848 24.9942 21.284 25.1442 20.672 25.1442H13.112C12.5 25.1442 11.939 24.9942 11.429 24.6942C10.919 24.3942 10.514 23.9862 10.214 23.4702C9.914 22.9542 9.764 22.3902 9.764 21.7782V14.2362C9.764 13.6242 9.914 13.0602 10.214 12.5442C10.514 12.0282 10.919 11.6202 11.429 11.3202C11.939 11.0202 12.5 10.8702 13.112 10.8702H20.672C21.284 10.8702 21.848 11.0202 22.364 11.3202C22.88 11.6202 23.288 12.0282 23.588 12.5442C23.888 13.0602 24.038 13.6242 24.038 14.2362V21.7782ZM21.59 12.0402C21.254 12.0402 20.966 12.1602 20.726 12.4002C20.486 12.6402 20.366 12.9282 20.366 13.2642C20.366 13.6002 20.486 13.8852 20.726 14.1192C20.966 14.3532 21.254 14.4702 21.59 14.4702C21.926 14.4702 22.211 14.3532 22.445 14.1192C22.679 13.8852 22.796 13.6002 22.796 13.2642C22.796 12.9282 22.679 12.6402 22.445 12.4002C22.211 12.1602 21.926 12.0402 21.59 12.0402Z" fill="white"/>
</g>
<defs>
<clipPath id="clip0_16_396">
<rect width="18" height="18" fill="white" transform="matrix(1 0 0 -1 8 27.0156)"/>
</clipPath>
</defs>
</svg>
